<?xml version="1.0" encoding="UTF-8" standalone="no"?>
<svg xmlns:dc="http://purl.org/dc/elements/1.1/"
  xmlns:svg="http://www.w3.org/2000/svg"
  xmlns="http://www.w3.org/2000/svg" viewBox="0 0 2350.05 625" height="625" width="2350.05" xml:space="preserve" version="1.1">
  <defs id="defs3359">
    <clipPath id="clipPath" clipPathUnits="userSpaceOnUse">
      <path d="m 0,500 1880.037,0 0,-500 L 0,0 0,500 Z" />
    </clipPath>
  </defs>
  <g transform="matrix(1.25,0,0,-1.25,0,625)">
    <g>
      <g clip-path="url(#clipPath)">
        <g transform="translate(359.272,427.3921)">
          <path style="fill:#223c55;fill-opacity:1;fill-rule:nonzero;stroke:none" d="m 0,0 c -11.496,0 -20.815,-9.319 -20.815,-20.815 l 0,-135.268 c 0,-11.497 9.319,-20.816 20.815,-20.816 11.496,0 20.815,9.319 20.815,20.816 l 0,135.268 C 20.815,-9.319 11.496,0 0,0" />
        </g>
        <g transform="translate(415.582,500)">
          <path style="fill:#223c55;fill-opacity:1;fill-rule:nonzero;stroke:none" d="m 0,0 c -11.496,0 -20.815,-9.319 -20.815,-20.816 l 0,-207.875 c 0,-11.496 9.319,-20.816 20.815,-20.816 11.496,0 20.815,9.32 20.815,20.816 l 0,207.875 C 20.815,-9.319 11.496,0 0,0" />
        </g>
        <g transform="translate(303.0742,358.3828)">
          <path style="fill:#223c55;fill-opacity:1;fill-rule:nonzero;stroke:none" d="m 0,0 c -11.496,0 -20.815,-9.319 -20.815,-20.815 l 0,-66.259 c 0,-11.496 9.319,-20.816 20.815,-20.816 11.496,0 20.814,9.32 20.814,20.816 l 0,66.259 C 20.814,-9.319 11.496,0 0,0" />
        </g>
        <g transform="translate(190.6812,452.8818)">
          <path style="fill:#223c55;fill-opacity:1;fill-rule:nonzero;stroke:none" d="m 0,0 c -11.496,0 -20.814,-9.319 -20.814,-20.815 l 0,-160.758 c 0,-11.496 9.318,-20.816 20.814,-20.816 11.498,0 20.815,9.32 20.815,20.816 l 0,160.758 C 20.815,-9.319 11.498,0 0,0" />
        </g>
        <g transform="translate(134.4834,379.1982)">
          <path style="fill:#223c55;fill-opacity:1;fill-rule:nonzero;stroke:none" d="m 0,0 c -11.496,0 -20.814,-9.318 -20.814,-20.815 l 0,-87.075 c 0,-11.497 9.318,-20.815 20.814,-20.815 11.496,0 20.815,9.318 20.815,20.815 l 0,87.075 C 20.815,-9.318 11.496,0 0,0" />
        </g>
        <g transform="translate(78.2876,304.9072)">
          <path style="fill:#223c55;fill-opacity:1;fill-rule:nonzero;stroke:none" d="m 0,0 c -11.496,0 -20.814,-9.318 -20.814,-20.814 l 0,-12.786 c 0,-11.495 9.318,-20.814 20.814,-20.814 11.496,0 20.815,9.319 20.815,20.814 l 0,12.786 C 20.815,-9.318 11.496,0 0,0" />
        </g>
        <g transform="translate(471.6641,413.9541)">
          <path style="fill:#223c55;fill-opacity:1;fill-rule:nonzero;stroke:none" d="m 0,0 c -11.496,0 -20.815,-9.318 -20.815,-20.815 l 0,-121.831 c 0,-11.498 9.319,-20.815 20.815,-20.815 11.496,0 20.815,9.317 20.815,20.815 l 0,121.831 C 20.815,-9.318 11.496,0 0,0" />
        </g>
        <g transform="translate(527.8613,341.2563)">
          <path style="fill:#223c55;fill-opacity:1;fill-rule:nonzero;stroke:none" d="m 0,0 c -11.496,0 -20.815,-9.319 -20.815,-20.815 l 0,-49.133 c 0,-11.496 9.319,-20.815 20.815,-20.815 11.496,0 20.815,9.319 20.815,20.815 l 0,49.133 C 20.815,-9.319 11.496,0 0,0" />
        </g>
        <g transform="translate(246.8784,384.3833)">
          <path style="fill:#223c55;fill-opacity:1;fill-rule:nonzero;stroke:none" d="m 0,0 c -11.496,0 -20.815,-9.319 -20.815,-20.815 l 0,-92.26 c 0,-11.496 9.319,-20.815 20.815,-20.815 11.496,0 20.814,9.319 20.814,20.815 l 0,92.26 C 20.814,-9.319 11.496,0 0,0" />
        </g>
        <g transform="translate(584.0576,300.6997)">
          <path style="fill:#223c55;fill-opacity:1;fill-rule:nonzero;stroke:none" d="m 0,0 c -11.496,0 -20.815,-9.319 -20.815,-20.814 l 0,-8.578 c 0,-11.495 9.319,-20.815 20.815,-20.815 11.496,0 20.815,9.32 20.815,20.815 l 0,8.578 C 20.815,-9.319 11.496,0 0,0" />
        </g>
        <g transform="translate(639.2432,300.6997)">
          <path style="fill:#223c55;fill-opacity:1;fill-rule:nonzero;stroke:none" d="m 0,0 c -11.495,0 -20.814,-9.319 -20.814,-20.814 l 0,-8.578 c 0,-11.495 9.319,-20.815 20.814,-20.815 11.497,0 20.816,9.32 20.816,20.815 l 0,8.578 C 20.816,-9.319 11.497,0 0,0" />
        </g>
        <g transform="translate(20.8149,300.6997)">
          <path style="fill:#223c55;fill-opacity:1;fill-rule:nonzero;stroke:none" d="m 0,0 c -11.496,0 -20.815,-9.319 -20.815,-20.814 l 0,-8.578 c 0,-11.495 9.319,-20.815 20.815,-20.815 11.497,0 20.815,9.32 20.815,20.815 l 0,8.578 C 20.815,-9.319 11.497,0 0,0" />
        </g>
        <g transform="translate(20.8145,241.915)">
          <path style="fill:#4b677a;fill-opacity:1;fill-rule:nonzero;stroke:none" d="m 0,0 c -11.496,0 -20.814,-9.319 -20.814,-20.814 0,-11.496 9.318,-20.815 20.814,-20.815 11.498,0 20.815,9.319 20.815,20.815 C 20.815,-9.319 11.498,0 0,0" />
        </g>
        <g transform="translate(78.2876,241.915)">
          <path style="fill:#4b677a;fill-opacity:1;fill-rule:nonzero;stroke:none" d="m 0,0 c -11.496,0 -20.814,-9.319 -20.814,-20.814 0,-11.496 9.318,-20.815 20.814,-20.815 11.497,0 20.815,9.319 20.815,20.815 C 20.815,-9.319 11.497,0 0,0" />
        </g>
        <g transform="translate(134.4834,241.915)">
          <path style="fill:#4b677a;fill-opacity:1;fill-rule:nonzero;stroke:none" d="m 0,0 c -11.496,0 -20.814,-9.319 -20.814,-20.814 0,-11.496 9.318,-20.815 20.814,-20.815 11.497,0 20.815,9.319 20.815,20.815 C 20.815,-9.319 11.497,0 0,0" />
        </g>
        <g transform="translate(134.4834,191.7041)">
          <path style="fill:#4b677a;fill-opacity:1;fill-rule:nonzero;stroke:none" d="m 0,0 c -9.479,0 -17.161,-7.684 -17.161,-17.161 0,-9.478 7.682,-17.161 17.161,-17.161 9.479,0 17.162,7.683 17.162,17.161 C 17.162,-7.684 9.479,0 0,0" />
        </g>
        <g transform="translate(134.6245,148.5977)">
          <path style="fill:#4b677a;fill-opacity:1;fill-rule:nonzero;stroke:none" d="m 0,0 c -7.523,0 -13.621,-6.099 -13.621,-13.62 0,-7.523 6.098,-13.621 13.621,-13.621 7.523,0 13.622,6.098 13.622,13.621 C 13.622,-6.099 7.523,0 0,0" />
        </g>
        <g transform="translate(190.6812,241.915)">
          <path style="fill:#4b677a;fill-opacity:1;fill-rule:nonzero;stroke:none" d="m 0,0 c -11.496,0 -20.814,-9.319 -20.814,-20.814 0,-11.496 9.318,-20.815 20.814,-20.815 11.498,0 20.815,9.319 20.815,20.815 C 20.815,-9.319 11.498,0 0,0" />
        </g>
        <g transform="translate(190.9263,191.916)">
          <path style="fill:#4b677a;fill-opacity:1;fill-rule:nonzero;stroke:none" d="m 0,0 c -9.537,0 -17.268,-7.731 -17.268,-17.268 0,-9.536 7.731,-17.266 17.268,-17.266 9.538,0 17.268,7.73 17.268,17.266 C 17.268,-7.731 9.538,0 0,0" />
        </g>
        <g transform="translate(190.6816,148.5977)">
          <path style="fill:#4b677a;fill-opacity:1;fill-rule:nonzero;stroke:none" d="m 0,0 c -8.657,0 -15.674,-7.018 -15.674,-15.674 0,-8.656 7.017,-15.674 15.674,-15.674 8.658,0 15.674,7.018 15.674,15.674 C 15.674,-7.018 8.658,0 0,0" />
        </g>
        <g transform="translate(190.6816,109.0244)">
          <path style="fill:#4b677a;fill-opacity:1;fill-rule:nonzero;stroke:none" d="m 0,0 c -8.004,0 -14.492,-6.488 -14.492,-14.492 0,-8.003 6.488,-14.491 14.492,-14.491 8.005,0 14.492,6.488 14.492,14.491 C 14.492,-6.488 8.005,0 0,0" />
        </g>
        <g transform="translate(190.6816,71.1279)">
          <path style="fill:#4b677a;fill-opacity:1;fill-rule:nonzero;stroke:none" d="m 0,0 c -6.477,0 -11.727,-5.251 -11.727,-11.728 0,-6.476 5.25,-11.727 11.727,-11.727 6.478,0 11.728,5.251 11.728,11.727 C 11.728,-5.251 6.478,0 0,0" />
        </g>
        <g transform="translate(246.877,241.915)">
          <path style="fill:#4b677a;fill-opacity:1;fill-rule:nonzero;stroke:none" d="m 0,0 c -11.496,0 -20.814,-9.319 -20.814,-20.814 0,-11.496 9.318,-20.815 20.814,-20.815 11.498,0 20.815,9.319 20.815,20.815 C 20.815,-9.319 11.498,0 0,0" />
        </g>
        <g transform="translate(246.8774,146.9268)">
          <path style="fill:#4b677a;fill-opacity:1;fill-rule:nonzero;stroke:none" d="m 0,0 c -8.493,0 -15.378,-6.885 -15.378,-15.377 0,-8.493 6.885,-15.378 15.378,-15.378 8.495,0 15.379,6.885 15.379,15.378 C 15.379,-6.885 8.495,0 0,0" />
        </g>
        <g transform="translate(246.877,191.708)">
          <path style="fill:#4b677a;fill-opacity:1;fill-rule:nonzero;stroke:none" d="m 0,0 c -9.996,0 -18.099,-8.104 -18.099,-18.1 0,-9.995 8.103,-18.098 18.099,-18.098 9.998,0 18.1,8.103 18.1,18.098 C 18.1,-8.104 9.998,0 0,0" />
        </g>
        <g transform="translate(303.0728,241.915)">
          <path style="fill:#4b677a;fill-opacity:1;fill-rule:nonzero;stroke:none" d="m 0,0 c -11.496,0 -20.814,-9.319 -20.814,-20.814 0,-11.496 9.318,-20.815 20.814,-20.815 11.498,0 20.815,9.319 20.815,20.815 C 20.815,-9.319 11.498,0 0,0" />
        </g>
        <g transform="translate(303.0732,157.3818)">
          <path style="fill:#4b677a;fill-opacity:1;fill-rule:nonzero;stroke:none" d="m 0,0 c -4.105,0 -7.434,-3.328 -7.434,-7.434 0,-4.105 3.329,-7.433 7.434,-7.433 4.106,0 7.434,3.328 7.434,7.433 C 7.434,-3.328 4.106,0 0,0" />
        </g>
        <g transform="translate(303.0732,191.916)">
          <path style="fill:#4b677a;fill-opacity:1;fill-rule:nonzero;stroke:none" d="m 0,0 c -7.191,0 -13.02,-5.829 -13.02,-13.02 0,-7.19 5.829,-13.019 13.02,-13.019 7.191,0 13.02,5.829 13.02,13.019 C 13.02,-5.829 7.191,0 0,0" />
        </g>
        <g transform="translate(359.0269,241.915)">
          <path style="fill:#4b677a;fill-opacity:1;fill-rule:nonzero;stroke:none" d="m 0,0 c -11.496,0 -20.814,-9.319 -20.814,-20.814 0,-11.496 9.318,-20.815 20.814,-20.815 11.497,0 20.815,9.319 20.815,20.815 C 20.815,-9.319 11.497,0 0,0" />
        </g>
        <g transform="translate(359.0273,89.9463)">
          <path style="fill:#4b677a;fill-opacity:1;fill-rule:nonzero;stroke:none" d="m 0,0 c -4.635,0 -8.392,-3.757 -8.392,-8.392 0,-4.634 3.757,-8.392 8.392,-8.392 4.635,0 8.392,3.758 8.392,8.392 C 8.392,-3.757 4.635,0 0,0" />
        </g>
        <g transform="translate(359.0273,151.3066)">
          <path style="fill:#4b677a;fill-opacity:1;fill-rule:nonzero;stroke:none" d="m 0,0 c -7.282,0 -13.185,-5.903 -13.185,-13.185 0,-7.281 5.903,-13.184 13.185,-13.184 7.282,0 13.185,5.903 13.185,13.184 C 13.185,-5.903 7.282,0 0,0" />
        </g>
        <g transform="translate(359.0273,116.1719)">
          <path style="fill:#4b677a;fill-opacity:1;fill-rule:nonzero;stroke:none" d="m 0,0 c -4.91,0 -8.891,-3.98 -8.891,-8.891 0,-4.91 3.981,-8.89 8.891,-8.89 4.911,0 8.891,3.98 8.891,8.89 C 8.891,-3.98 4.911,0 0,0" />
        </g>
        <g transform="translate(359.0269,191.8945)">
          <path style="fill:#4b677a;fill-opacity:1;fill-rule:nonzero;stroke:none" d="m 0,0 c -9.001,0 -16.298,-7.297 -16.298,-16.298 0,-9.001 7.297,-16.298 16.298,-16.298 9.003,0 16.299,7.297 16.299,16.298 C 16.299,-7.297 9.003,0 0,0" />
        </g>
        <g transform="translate(415.4673,241.915)">
          <path style="fill:#4b677a;fill-opacity:1;fill-rule:nonzero;stroke:none" d="m 0,0 c -11.496,0 -20.814,-9.319 -20.814,-20.814 0,-11.496 9.318,-20.815 20.814,-20.815 11.498,0 20.815,9.319 20.815,20.815 C 20.815,-9.319 11.498,0 0,0" />
        </g>
        <g transform="translate(415.4673,191.8945)">
          <path style="fill:#4b677a;fill-opacity:1;fill-rule:nonzero;stroke:none" d="m 0,0 c -10.1,0 -18.286,-8.188 -18.286,-18.286 0,-10.099 8.186,-18.286 18.286,-18.286 10.101,0 18.287,8.187 18.287,18.286 C 18.287,-8.188 10.101,0 0,0" />
        </g>
        <g transform="translate(415.4673,147.2227)">
          <path style="fill:#4b677a;fill-opacity:1;fill-rule:nonzero;stroke:none" d="m 0,0 c -9.403,0 -17.024,-7.622 -17.024,-17.023 0,-9.403 7.621,-17.025 17.024,-17.025 9.404,0 17.025,7.622 17.025,17.025 C 17.025,-7.622 9.404,0 0,0" />
        </g>
        <g transform="translate(415.4673,104.5918)">
          <path style="fill:#4b677a;fill-opacity:1;fill-rule:nonzero;stroke:none" d="m 0,0 c -8.794,0 -15.923,-7.129 -15.923,-15.923 0,-8.793 7.129,-15.923 15.923,-15.923 8.795,0 15.924,7.13 15.924,15.923 C 15.924,-7.129 8.795,0 0,0" />
        </g>
        <g transform="translate(415.4673,64.1641)">
          <path style="fill:#4b677a;fill-opacity:1;fill-rule:nonzero;stroke:none" d="m 0,0 c -7.294,0 -13.208,-5.914 -13.208,-13.208 0,-7.294 5.914,-13.208 13.208,-13.208 7.295,0 13.208,5.914 13.208,13.208 C 13.208,-5.914 7.295,0 0,0" />
        </g>
        <g transform="translate(415.4673,29.166)">
          <path style="fill:#4b677a;fill-opacity:1;fill-rule:nonzero;stroke:none" d="m 0,0 c -8.054,0 -14.583,-6.529 -14.583,-14.583 0,-8.054 6.529,-14.583 14.583,-14.583 8.055,0 14.584,6.529 14.584,14.583 C 14.584,-6.529 8.055,0 0,0" />
        </g>
        <g transform="translate(471.6631,241.915)">
          <path style="fill:#4b677a;fill-opacity:1;fill-rule:nonzero;stroke:none" d="m 0,0 c -11.496,0 -20.814,-9.319 -20.814,-20.814 0,-11.496 9.318,-20.815 20.814,-20.815 11.497,0 20.815,9.319 20.815,20.815 C 20.815,-9.319 11.497,0 0,0" />
        </g>
        <g transform="translate(471.6631,191.8955)">
          <path style="fill:#4b677a;fill-opacity:1;fill-rule:nonzero;stroke:none" d="m 0,0 c -10.1,0 -18.286,-8.188 -18.286,-18.287 0,-10.099 8.186,-18.286 18.286,-18.286 10.101,0 18.287,8.187 18.287,18.286 C 18.287,-8.188 10.101,0 0,0" />
        </g>
        <g transform="translate(471.6631,147.2227)">
          <path style="fill:#4b677a;fill-opacity:1;fill-rule:nonzero;stroke:none" d="m 0,0 c -8.656,0 -15.674,-7.018 -15.674,-15.673 0,-8.656 7.018,-15.674 15.674,-15.674 8.658,0 15.675,7.018 15.675,15.674 C 15.675,-7.018 8.658,0 0,0" />
        </g>
        <g transform="translate(471.6631,107.2813)">
          <path style="fill:#4b677a;fill-opacity:1;fill-rule:nonzero;stroke:none" d="m 0,0 c -5.936,0 -10.748,-4.812 -10.748,-10.748 0,-5.936 4.812,-10.748 10.748,-10.748 5.937,0 10.749,4.812 10.749,10.748 C 10.749,-4.812 5.937,0 0,0" />
        </g>
        <g transform="translate(527.8613,241.915)">
          <path style="fill:#4b677a;fill-opacity:1;fill-rule:nonzero;stroke:none" d="m 0,0 c -11.496,0 -20.814,-9.319 -20.814,-20.814 0,-11.496 9.318,-20.815 20.814,-20.815 11.497,0 20.815,9.319 20.815,20.815 C 20.815,-9.319 11.497,0 0,0" />
        </g>
        <g transform="translate(527.8613,191.7041)">
          <path style="fill:#4b677a;fill-opacity:1;fill-rule:nonzero;stroke:none" d="m 0,0 c -8.949,0 -16.202,-7.255 -16.202,-16.203 0,-8.948 7.253,-16.202 16.202,-16.202 8.949,0 16.203,7.254 16.203,16.202 C 16.203,-7.255 8.949,0 0,0" />
        </g>
        <g transform="translate(584.0566,241.915)">
          <path style="fill:#4b677a;fill-opacity:1;fill-rule:nonzero;stroke:none" d="m 0,0 c -11.496,0 -20.813,-9.319 -20.813,-20.814 0,-11.496 9.317,-20.815 20.813,-20.815 11.497,0 20.815,9.319 20.815,20.815 C 20.815,-9.319 11.497,0 0,0" />
        </g>
        <g transform="translate(639.2432,241.915)">
          <path style="fill:#4b677a;fill-opacity:1;fill-rule:nonzero;stroke:none" d="m 0,0 c -11.496,0 -20.813,-9.319 -20.813,-20.814 0,-11.496 9.317,-20.815 20.813,-20.815 11.498,0 20.815,9.319 20.815,20.815 C 20.815,-9.319 11.498,0 0,0" />
        </g>
        <g transform="translate(937.5508,270.3892)">
          <path style="fill:#223c55;fill-opacity:1;fill-rule:nonzero;stroke:none" d="m 0,0 c 0,38.042 -20.668,56.015 -43.132,56.015 -22.464,0 -38.937,-19.17 -38.937,-35.045 l 0,-54.516 c 8.382,-14.675 21.865,-24.858 37.74,-24.858 C -19.17,-58.404 0,-37.439 0,0 m -112.624,76.381 30.253,0 0,-20.969 c 7.789,9.886 22.167,23.962 47.627,23.962 35.342,0 64.097,-25.456 64.097,-78.474 0,-53.616 -29.952,-82.37 -68.592,-82.37 -16.475,0 -30.852,6.291 -42.83,24.56 l 0,-69.789 -30.555,0 0,203.08 z" />
        </g>
        <g transform="translate(1098.1182,282.3726)">
          <path style="fill:#223c55;fill-opacity:1;fill-rule:nonzero;stroke:none" d="M 0,0 C 0,25.159 -12.582,44.63 -39.239,44.63 -66.5,44.63 -79.975,21.865 -79.678,0 L 0,0 Z m -37.745,-70.09 c 18.872,0 31.751,8.387 37.745,25.46 l 28.448,0 c -7.181,-32.647 -35.046,-48.824 -65.591,-48.824 -43.435,0 -73.386,29.655 -73.386,78.775 0,48.523 26.059,82.069 71.29,82.069 44.324,0 68.29,-30.248 68.29,-76.975 l 0,-10.782 -109.026,0 c 0,-28.155 14.079,-49.723 42.23,-49.723" />
        </g>
        <g transform="translate(1250.2324,242.8369)">
          <path style="fill:#223c55;fill-opacity:1;fill-rule:nonzero;stroke:none" d="m 0,0 0,26.059 -21.563,-0.603 c -33.246,-0.298 -51.218,-8.982 -51.218,-31.148 0,-16.777 12.879,-26.659 30.85,-26.659 C -21.87,-32.351 -0.297,-16.475 0,0 m -102.436,-8.689 c 0,34.446 22.76,50.92 76.381,52.117 L 0,44.026 0,55.708 c 0,18.571 -13.481,29.353 -33.849,29.056 -16.469,0 -31.751,-8.086 -35.638,-24.862 l -26.964,0 c 1.8,27.854 26.657,47.024 64.105,47.024 41.633,0 61.703,-19.467 61.703,-49.719 l 0,-108.128 -26.063,0 -2.395,27.854 c -11.681,-23.962 -29.951,-30.851 -52.117,-30.851 -29.951,0 -51.218,16.775 -51.218,45.229" />
        </g>
        <g transform="translate(1422.4883,191.916)">
          <path style="fill:#223c55;fill-opacity:1;fill-rule:nonzero;stroke:none" d="m 0,0 -47.33,75.778 -28.754,-29.952 0,-45.826 -30.555,0 0,222.546 30.555,0 0,-142.871 70.09,75.179 34.442,0 L -27.558,95.249 31.742,0 0,0 Z" />
        </g>
        <g transform="translate(1463.4189,237.7422)">
          <path style="fill:#223c55;fill-opacity:1;fill-rule:nonzero;stroke:none" d="m 0,0 27.854,0 c 4.195,-18.868 20.665,-26.059 37.44,-26.059 20.069,0 33.551,7.789 33.551,22.167 0,10.782 -7.794,17.073 -21.869,20.367 L 47.024,23.962 C 21.563,30.253 5.391,41.633 5.094,65.298 c 0,29.353 24.255,46.723 60.2,46.723 34.451,0 57.509,-16.771 58.111,-45.224 l -26.963,0 C 94.048,80.873 82.069,89.26 64.699,89.26 c -14.381,0 -31.751,-4.792 -31.751,-21.864 0,-10.787 8.685,-15.876 25.758,-19.769 l 29.951,-7.492 c 29.655,-7.488 37.44,-27.553 37.44,-42.529 0,-30.252 -27.558,-46.429 -60.803,-46.429 C 32.948,-48.823 4.491,-32.948 0,0" />
        </g>
        <path style="fill:#223c55;fill-opacity:1;fill-rule:nonzero;stroke:none" d="m 1655.646,191.916 -35.648,0 0,37.438 35.648,0 0,-37.438 z" />
        <path style="fill:#223c55;fill-opacity:1;fill-rule:nonzero;stroke:none" d="m 1726.654,377.32 -32.049,0 0,30.851 32.049,0 0,-30.851 z M 1681.43,142.196 c -16.479,0 -19.169,3.591 -19.169,3.591 l -0.297,20.371 14.669,0.896 c 13.779,1.201 18.576,6.592 18.576,20.371 l 0,159.346 30.545,0 0,-160.247 c 0,-29.951 -11.682,-44.328 -44.324,-44.328" />
        <g transform="translate(1753.9326,237.7422)">
          <path style="fill:#223c55;fill-opacity:1;fill-rule:nonzero;stroke:none" d="m 0,0 27.863,0 c 4.185,-18.868 20.663,-26.059 37.439,-26.059 20.07,0 33.543,7.789 33.543,22.167 0,10.782 -7.785,17.073 -21.862,20.367 L 47.032,23.962 C 21.572,30.253 5.391,41.633 5.094,65.298 c 0,29.353 24.263,46.723 60.208,46.723 34.442,0 57.509,-16.771 58.102,-45.224 l -26.954,0 C 94.057,80.873 82.068,89.26 64.699,89.26 c -14.373,0 -31.751,-4.792 -31.751,-21.864 0,-10.787 8.685,-15.876 25.766,-19.769 l 29.952,-7.492 c 29.645,-7.488 37.438,-27.553 37.438,-42.529 0,-30.252 -27.556,-46.429 -60.802,-46.429 C 32.948,-48.823 4.5,-32.948 0,0" />
        </g>
      </g>
    </g>
  </g>
</svg>
